<svg width="80" height="80" viewBox="0 0 80 80" fill="none" xmlns="http://www.w3.org/2000/svg">
<path d="M40 5C32.7092 5.0086 25.7194 7.90868 20.564 13.0641C15.4087 18.2195 12.5086 25.2092 12.5 32.5C12.4933 38.4577 14.4393 44.2535 18.04 49C18.04 49 18.79 49.9875 18.9125 50.13L40 75L61.0975 50.1175C61.2075 49.985 61.96 49 61.96 49L61.9625 48.9925C65.5608 44.2477 67.5058 38.4549 67.5 32.5C67.4914 25.2092 64.5913 18.2195 59.4359 13.0641C54.2805 7.90868 47.2908 5.0086 40 5ZM42.5 45H37.5V40H42.5V45ZM42.5 35H37.5V30H42.5V35ZM52.5 45H47.5V25H32.5V45H27.5V25C27.5 23.6739 28.0268 22.4021 28.9645 21.4645C29.9021 20.5268 31.1739 20 32.5 20H47.5C48.8261 20 50.0978 20.5268 51.0355 21.4645C51.9732 22.4021 52.5 23.6739 52.5 25V45Z" fill="#83C55A"/>
</svg>
