<svg width="24" height="24" viewBox="0 0 24 24" fill="none" xmlns="http://www.w3.org/2000/svg">
<path fill-rule="evenodd" clip-rule="evenodd" d="M4.305 11.6243L7.26 14.5793C7.37053 14.6823 7.45918 14.8065 7.52067 14.9445C7.58216 15.0825 7.61522 15.2314 7.61789 15.3825C7.62055 15.5336 7.59277 15.6836 7.53618 15.8237C7.4796 15.9638 7.39539 16.091 7.28856 16.1978C7.18173 16.3047 7.05448 16.3889 6.9144 16.4455C6.77431 16.502 6.62427 16.5298 6.47322 16.5272C6.32216 16.5245 6.17319 16.4914 6.03519 16.43C5.89719 16.3685 5.77299 16.2798 5.67 16.1693L0.795 11.2943L0 10.4993L0.795 9.70428L5.67 4.82928C5.88326 4.63056 6.16533 4.52238 6.45678 4.52752C6.74824 4.53266 7.02631 4.65073 7.23243 4.85685C7.43855 5.06297 7.55662 5.34105 7.56176 5.6325C7.5669 5.92395 7.45872 6.20602 7.26 6.41928L4.305 9.37428H19.125C20.4179 9.37428 21.6579 9.8879 22.5721 10.8021C23.4864 11.7164 24 12.9564 24 14.2493C24 15.5422 23.4864 16.7822 22.5721 17.6964C21.6579 18.6107 20.4179 19.1243 19.125 19.1243H16.125C15.8266 19.1243 15.5405 19.0058 15.3295 18.7948C15.1185 18.5838 15 18.2977 15 17.9993C15 17.7009 15.1185 17.4148 15.3295 17.2038C15.5405 16.9928 15.8266 16.8743 16.125 16.8743H19.125C19.8212 16.8743 20.4889 16.5977 20.9812 16.1054C21.4734 15.6132 21.75 14.9455 21.75 14.2493C21.75 13.5531 21.4734 12.8854 20.9812 12.3931C20.4889 11.9008 19.8212 11.6243 19.125 11.6243H4.305Z" fill="#83C55A"/>
</svg>
