<svg width="32" height="33" viewBox="0 0 32 33" fill="none" xmlns="http://www.w3.org/2000/svg">
<path d="M7 7.19995H9L9.4 9.19995M11 17.2H21L25 9.19995H9.4M11 17.2L9.4 9.19995M11 17.2L8.70711 19.4928C8.07714 20.1228 8.52331 21.2 9.41421 21.2H21M21 21.2C19.8954 21.2 19 22.0954 19 23.2C19 24.3045 19.8954 25.2 21 25.2C22.1046 25.2 23 24.3045 23 23.2C23 22.0954 22.1046 21.2 21 21.2ZM13 23.2C13 24.3045 12.1046 25.2 11 25.2C9.89543 25.2 9 24.3045 9 23.2C9 22.0954 9.89543 21.2 11 21.2C12.1046 21.2 13 22.0954 13 23.2Z" stroke="#F7FFF2" stroke-width="2" stroke-linecap="round" stroke-linejoin="round"/>
</svg>
