<svg width="80" height="80" viewBox="0 0 80 80" fill="none" xmlns="http://www.w3.org/2000/svg">
<path d="M38.3333 6.66663C22.7 6.66663 10 19.3666 10 35C10 50.6333 22.7 63.3333 38.3333 63.3333H40V73.3333C56.2 65.5333 66.6667 50 66.6667 35C66.6667 19.3666 53.9667 6.66663 38.3333 6.66663ZM41.6667 55H35V48.3333H41.6667V55ZM41.6667 43.3333H35C35 32.5 45 33.3333 45 26.6666C45 23 42 20 38.3333 20C34.6667 20 31.6667 23 31.6667 26.6666H25C25 19.3 30.9667 13.3333 38.3333 13.3333C45.7 13.3333 51.6667 19.3 51.6667 26.6666C51.6667 35 41.6667 35.8333 41.6667 43.3333Z" fill="#83C55A"/>
</svg>
