<svg width="33" height="32" viewBox="0 0 33 32" fill="none" xmlns="http://www.w3.org/2000/svg">
<g filter="url(#filter0_d_2440_15284)">
<path d="M28.0522 16C28.0522 9.37262 22.6796 4 16.0522 4C9.42487 4 4.05225 9.37262 4.05225 16C4.05225 21.9895 8.4405 26.954 14.1772 27.8542V19.4688H11.1304V16H14.1772V13.3563C14.1772 10.3488 15.9688 8.6875 18.7099 8.6875C20.0227 8.6875 21.396 8.92188 21.396 8.92188V11.875H19.8829C18.3922 11.875 17.9272 12.8 17.9272 13.7491V16H21.2554L20.7233 19.4688H17.9272V27.8542C23.664 26.954 28.0522 21.9896 28.0522 16Z" fill="#1877F2"/>
<path d="M20.7233 19.4688L21.2554 16H17.9272V13.7491C17.9272 12.7999 18.3922 11.875 19.8829 11.875H21.396V8.92188C21.396 8.92188 20.0227 8.6875 18.7098 8.6875C15.9688 8.6875 14.1772 10.3488 14.1772 13.3563V16H11.1304V19.4688H14.1772V27.8542C14.7975 27.9514 15.4244 28.0001 16.0522 28C16.6801 28.0001 17.307 27.9514 17.9272 27.8542V19.4688H20.7233Z" fill="white"/>
</g>
<defs>
<filter id="filter0_d_2440_15284" x="0.0522461" y="0" width="32" height="32" filterUnits="userSpaceOnUse" color-interpolation-filters="sRGB">
<feFlood flood-opacity="0" result="BackgroundImageFix"/>
<feColorMatrix in="SourceAlpha" type="matrix" values="0 0 0 0 0 0 0 0 0 0 0 0 0 0 0 0 0 0 127 0" result="hardAlpha"/>
<feOffset/>
<feGaussianBlur stdDeviation="2"/>
<feComposite in2="hardAlpha" operator="out"/>
<feColorMatrix type="matrix" values="0 0 0 0 0 0 0 0 0 0 0 0 0 0 0 0 0 0 0.25 0"/>
<feBlend mode="normal" in2="BackgroundImageFix" result="effect1_dropShadow_2440_15284"/>
<feBlend mode="normal" in="SourceGraphic" in2="effect1_dropShadow_2440_15284" result="shape"/>
</filter>
</defs>
</svg>
