<svg width="80" height="80" viewBox="0 0 80 80" fill="none" xmlns="http://www.w3.org/2000/svg">
<g clip-path="url(#clip0_3109_2684)">
<path d="M40 0C34.7692 0 30.7692 4 30.7692 9.23077V27.6923C30.7692 32.9231 34.7692 36.9231 40 36.9231H58.4615L70.7692 49.2308V36.9231C76 36.9231 80 32.9231 80 27.6923V9.23077C80 4 76 0 70.7692 0H40ZM52.8862 9.23077H58.1723L63.3662 27.6923H58.7508L57.4985 23.0769H52.8831L51.7323 27.6923H47.6923L52.8862 9.23077ZM55.3846 12.3077C55.0769 13.5385 54.7323 15.04 54.4215 15.9631L53.56 20H57.2123L56.3446 15.96C55.7323 15.04 55.3846 13.5385 55.3846 12.3077ZM9.23077 30.7692C4 30.7692 0 34.7692 0 40V58.4615C0 63.6923 4 67.6923 9.23077 67.6923V80L21.5385 67.6923H40C45.2308 67.6923 49.2308 63.6923 49.2308 58.4615V40H40C34.1538 40 29.52 36 27.9815 30.7692H9.23077ZM23.3662 39.7108C28.5969 39.7108 31.0585 44.0185 31.0585 48.9415C31.0585 53.2492 29.5785 55.9815 27.1169 57.2123C28.3477 57.8277 29.8062 58.1538 31.3446 58.4615L30.1938 61.5385C28.04 60.9231 25.8062 59.9631 23.6523 59.0369C23.3446 58.7292 22.8062 58.7508 22.4985 58.7508C18.8062 58.4431 15.3846 55.3846 15.3846 49.2308C15.3846 44 18.4431 39.7108 23.3662 39.7108ZM23.3662 43.0769C20.9046 43.0769 19.7108 45.8462 19.7108 49.2308C19.7108 52.9231 20.9046 55.3846 23.3662 55.3846C25.8277 55.3846 27.1138 52.6154 27.1138 49.2308C27.1138 45.8462 25.8277 43.0769 23.3662 43.0769Z" fill="#83C55A"/>
</g>
<defs>
<clipPath id="clip0_3109_2684">
<rect width="80" height="80" fill="white"/>
</clipPath>
</defs>
</svg>
