<svg width="24" height="24" viewBox="0 0 24 24" fill="none" xmlns="http://www.w3.org/2000/svg">
<path fill-rule="evenodd" clip-rule="evenodd" d="M16.25 6C15.84 6 15.5 5.66 15.5 5.25V4.026C14.726 4 13.817 4 12.75 4H10.75C9.682 4 8.774 4 8 4.026V5.25C8 5.66 7.66 6 7.25 6C6.84 6 6.5 5.66 6.5 5.25V4.134C5.555 4.257 4.906 4.494 4.45 4.95C3.848 5.552 3.628 6.49 3.547 8H19.953C19.872 6.49 19.651 5.552 19.05 4.95C18.594 4.494 17.945 4.257 17 4.134V5.25C17 5.66 16.66 6 16.25 6ZM19.994 9.5C19.9993 10.0287 20.0013 10.612 20 11.25V12.25C20 12.66 20.34 13 20.75 13C21.16 13 21.5 12.66 21.5 12.25V11.25C21.5 7.27 21.5 5.28 20.11 3.89C19.338 3.118 18.38 2.775 17 2.622V1.75C17 1.34 16.66 1 16.25 1C15.84 1 15.5 1.34 15.5 1.75V2.525C14.704 2.5 13.795 2.5 12.75 2.5H10.75C9.704 2.5 8.796 2.5 8 2.525V1.75C8 1.34 7.66 1 7.25 1C6.84 1 6.5 1.34 6.5 1.75V2.622C5.12 2.775 4.162 3.118 3.39 3.89C2 5.28 2 7.28 2 11.25V13.25C2 17.23 2 19.22 3.39 20.61C4.78 22 6.77 22 10.75 22C11.16 22 11.5 21.66 11.5 21.25C11.5 20.84 11.16 20.5 10.75 20.5C7.19 20.5 5.4 20.5 4.45 19.55C3.5 18.6 3.5 16.81 3.5 13.25V11.25C3.49933 10.6127 3.501 10.0293 3.505 9.5H19.994ZM16.75 22.5C14.13 22.5 12 20.37 12 17.75C12 15.13 14.13 13 16.75 13C19.37 13 21.5 15.13 21.5 17.75C21.5 20.37 19.37 22.5 16.75 22.5ZM16.75 14.5C14.96 14.5 13.5 15.96 13.5 17.75C13.5 19.54 14.96 21 16.75 21C18.54 21 20 19.54 20 17.75C20 15.96 18.54 14.5 16.75 14.5ZM17.22 19.28C17.37 19.43 17.56 19.5 17.75 19.5C17.94 19.5 18.13 19.43 18.28 19.28C18.57 18.99 18.57 18.51 18.28 18.22L17.5 17.44V15.75C17.5 15.34 17.16 15 16.75 15C16.34 15 16 15.34 16 15.75V17.75C16 17.95 16.08 18.14 16.22 18.28L17.22 19.28Z" fill="black"/>
</svg>
