<svg width="33" height="32" viewBox="0 0 33 32" fill="none" xmlns="http://www.w3.org/2000/svg">
<g filter="url(#filter0_d_2440_15275)">
<path d="M16.0527 6.16225C19.2568 6.16225 19.6363 6.17444 20.9017 6.23209C22.0717 6.28553 22.7071 6.481 23.13 6.64534C23.6901 6.86303 24.0898 7.12309 24.5097 7.543C24.9296 7.96291 25.1897 8.36266 25.4074 8.92272C25.5717 9.34562 25.7672 9.98106 25.8206 11.151C25.8783 12.4164 25.8905 12.7959 25.8905 16C25.8905 19.2041 25.8783 19.5837 25.8206 20.849C25.7672 22.019 25.5717 22.6544 25.4074 23.0773C25.1897 23.6373 24.9296 24.0372 24.5097 24.4571C24.0898 24.877 23.6901 25.1371 23.13 25.3547C22.7071 25.519 22.0717 25.7146 20.9017 25.7679C19.6365 25.8257 19.257 25.8378 16.0527 25.8378C12.8485 25.8378 12.4689 25.8257 11.2037 25.7679C10.0337 25.7145 9.39836 25.519 8.97545 25.3547C8.41539 25.1371 8.01555 24.877 7.59564 24.4571C7.17573 24.0371 6.91567 23.6373 6.69808 23.0773C6.53373 22.6545 6.33817 22.019 6.28483 20.849C6.22708 19.5837 6.21489 19.2042 6.21489 16C6.21489 12.7958 6.22708 12.4164 6.28483 11.1511C6.33827 9.98106 6.53373 9.34562 6.69808 8.92272C6.91567 8.36266 7.17573 7.96291 7.59564 7.543C8.01564 7.123 8.41539 6.86303 8.97545 6.64534C9.39827 6.481 10.0337 6.28553 11.2037 6.23209C12.469 6.17444 12.8485 6.16225 16.0527 6.16225ZM16.0527 4C12.7937 4 12.385 4.01378 11.1052 4.07219C9.82783 4.1305 8.95548 4.33337 8.19227 4.63C7.40308 4.93666 6.73389 5.347 6.06677 6.01412C5.39964 6.68125 4.98939 7.35044 4.68273 8.13953C4.38602 8.90284 4.18323 9.77519 4.12492 11.0524C4.06652 12.3323 4.05273 12.741 4.05273 16C4.05273 19.259 4.06652 19.6677 4.12492 20.9476C4.18323 22.2249 4.38602 23.0972 4.68273 23.8605C4.9893 24.6496 5.39964 25.3188 6.06677 25.986C6.73389 26.6531 7.40308 27.0633 8.19227 27.37C8.95558 27.6667 9.82783 27.8695 11.1051 27.9278C12.385 27.9862 12.7937 28 16.0527 28C19.3118 28 19.7204 27.9862 21.0003 27.9278C22.2775 27.8695 23.1499 27.6667 23.9131 27.37C24.7023 27.0634 25.3715 26.6531 26.0386 25.986C26.7057 25.3188 27.1161 24.6497 27.4227 23.8605C27.7194 23.0972 27.9222 22.2249 27.9805 20.9477C28.039 19.6677 28.0527 19.259 28.0527 16C28.0527 12.741 28.039 12.3323 27.9805 11.0524C27.9222 9.77519 27.7194 8.90284 27.4227 8.13962C27.1161 7.35044 26.7057 6.68125 26.0386 6.01412C25.3715 5.347 24.7023 4.93656 23.9132 4.63C23.1499 4.33337 22.2775 4.1305 21.0003 4.07219C19.7204 4.01378 19.3118 4 16.0527 4ZM16.0527 9.83781C12.6494 9.83781 9.89055 12.5969 9.89055 16C9.89055 19.4031 12.6494 22.1622 16.0527 22.1622C19.456 22.1622 22.2149 19.4033 22.2149 16C22.2149 12.5968 19.456 9.83781 16.0527 9.83781ZM16.0527 20C13.8436 20 12.0527 18.2091 12.0527 16C12.0527 13.7909 13.8436 12 16.0527 12C18.2619 12 20.0528 13.7909 20.0528 16C20.0528 18.2091 18.2619 20 16.0527 20ZM23.8983 9.59434C23.8983 10.3897 23.2537 11.0343 22.4583 11.0343C21.6629 11.0343 21.0183 10.3897 21.0183 9.59434C21.0183 8.79897 21.663 8.15434 22.4583 8.15434C23.2536 8.15434 23.8983 8.79906 23.8983 9.59434Z" fill="#0A0A08"/>
</g>
<defs>
<filter id="filter0_d_2440_15275" x="0.0527344" y="0" width="32" height="32" filterUnits="userSpaceOnUse" color-interpolation-filters="sRGB">
<feFlood flood-opacity="0" result="BackgroundImageFix"/>
<feColorMatrix in="SourceAlpha" type="matrix" values="0 0 0 0 0 0 0 0 0 0 0 0 0 0 0 0 0 0 127 0" result="hardAlpha"/>
<feOffset/>
<feGaussianBlur stdDeviation="2"/>
<feComposite in2="hardAlpha" operator="out"/>
<feColorMatrix type="matrix" values="0 0 0 0 0 0 0 0 0 0 0 0 0 0 0 0 0 0 0.25 0"/>
<feBlend mode="normal" in2="BackgroundImageFix" result="effect1_dropShadow_2440_15275"/>
<feBlend mode="normal" in="SourceGraphic" in2="effect1_dropShadow_2440_15275" result="shape"/>
</filter>
</defs>
</svg>
