<svg width="32" height="31" viewBox="0 0 32 31" fill="none" xmlns="http://www.w3.org/2000/svg">
<g filter="url(#filter0_d_2440_15272)">
<path d="M25.3652 4.00009H5.86523C5.42279 3.99558 4.99663 4.16678 4.68027 4.47612C4.3639 4.78545 4.18317 5.20766 4.17773 5.65009V25.2288C4.18416 25.6706 4.36532 26.0919 4.68158 26.4004C4.99784 26.7089 5.42343 26.8796 5.86523 26.8751H25.3652C25.8077 26.8786 26.2336 26.7068 26.5498 26.3973C26.866 26.0878 27.0468 25.6657 27.0527 25.2232V5.64446C27.0448 5.20333 26.8632 4.78314 26.5472 4.47522C26.2312 4.16731 25.8064 3.99656 25.3652 4.00009Z" fill="#0076B2"/>
<path d="M7.56395 12.5742H10.9596V23.4998H7.56395V12.5742ZM9.2627 7.13672C9.65216 7.13672 10.0329 7.25223 10.3567 7.46864C10.6805 7.68506 10.9328 7.99264 11.0818 8.35249C11.2307 8.71235 11.2696 9.10829 11.1935 9.49024C11.1174 9.87219 10.9297 10.223 10.6541 10.4982C10.3786 10.7735 10.0277 10.9609 9.64563 11.0366C9.26361 11.1124 8.8677 11.0731 8.50799 10.9238C8.14828 10.7745 7.84093 10.5219 7.62483 10.1979C7.40873 9.87388 7.29358 9.49306 7.29395 9.10359C7.29444 8.58177 7.50208 8.0815 7.87124 7.71269C8.2404 7.34388 8.74088 7.13672 9.2627 7.13672ZM13.0896 12.5742H16.3446V14.0742H16.3896C16.8433 13.2155 17.9496 12.3098 19.6014 12.3098C23.0402 12.3023 23.6777 14.5655 23.6777 17.4998V23.4998H20.2821V18.1842C20.2821 16.9186 20.2596 15.2892 18.5177 15.2892C16.7758 15.2892 16.4796 16.6692 16.4796 18.1017V23.4998H13.0896V12.5742Z" fill="white"/>
</g>
<defs>
<filter id="filter0_d_2440_15272" x="0.177734" y="0" width="30.875" height="30.8752" filterUnits="userSpaceOnUse" color-interpolation-filters="sRGB">
<feFlood flood-opacity="0" result="BackgroundImageFix"/>
<feColorMatrix in="SourceAlpha" type="matrix" values="0 0 0 0 0 0 0 0 0 0 0 0 0 0 0 0 0 0 127 0" result="hardAlpha"/>
<feOffset/>
<feGaussianBlur stdDeviation="2"/>
<feComposite in2="hardAlpha" operator="out"/>
<feColorMatrix type="matrix" values="0 0 0 0 0 0 0 0 0 0 0 0 0 0 0 0 0 0 0.25 0"/>
<feBlend mode="normal" in2="BackgroundImageFix" result="effect1_dropShadow_2440_15272"/>
<feBlend mode="normal" in="SourceGraphic" in2="effect1_dropShadow_2440_15272" result="shape"/>
</filter>
</defs>
</svg>
