<svg width="30" height="34" viewBox="0 0 30 34" fill="none" xmlns="http://www.w3.org/2000/svg">
<path d="M24.4294 24.0563C22.6314 25.8543 18.5737 29.912 16.4147 32.071C15.6337 32.8521 14.3698 32.8529 13.5887 32.0719C11.4651 29.9483 7.49456 25.9777 5.57321 24.0563C0.366221 18.8494 0.366221 10.4072 5.57321 5.20017C10.7802 -0.00682575 19.2224 -0.00682575 24.4294 5.20017C29.6364 10.4072 29.6364 18.8494 24.4294 24.0563Z" stroke="#83C55A" stroke-width="2" stroke-linecap="round" stroke-linejoin="round"/>
<path d="M20.0013 14.6283C20.0013 17.3897 17.7627 19.6283 15.0013 19.6283C12.2399 19.6283 10.0013 17.3897 10.0013 14.6283C10.0013 11.8668 12.2399 9.62826 15.0013 9.62826C17.7627 9.62826 20.0013 11.8668 20.0013 14.6283Z" stroke="#83C55A" stroke-width="2" stroke-linecap="round" stroke-linejoin="round"/>
</svg>
