<svg width="29" height="24" viewBox="0 0 29 24" fill="none" xmlns="http://www.w3.org/2000/svg">
<path d="M17.9211 22.5C17.9211 19.406 14.2455 16.9 9.71053 16.9C5.17558 16.9 1.5 19.406 1.5 22.5M23.3947 18.3V14.1M23.3947 14.1V9.9M23.3947 14.1H19.2895M23.3947 14.1H27.5M9.71053 12.7C8.25882 12.7 6.86656 12.11 5.84005 11.0598C4.81353 10.0096 4.23684 8.58521 4.23684 7.1C4.23684 5.61479 4.81353 4.19041 5.84005 3.1402C6.86656 2.09 8.25882 1.5 9.71053 1.5C11.1622 1.5 12.5545 2.09 13.581 3.1402C14.6075 4.19041 15.1842 5.61479 15.1842 7.1C15.1842 8.58521 14.6075 10.0096 13.581 11.0598C12.5545 12.11 11.1622 12.7 9.71053 12.7Z" stroke="white" stroke-width="2" stroke-linecap="round" stroke-linejoin="round"/>
</svg>
