<svg width="24" height="24" viewBox="0 0 24 24" fill="none" xmlns="http://www.w3.org/2000/svg">
<path d="M16.6983 21.9958H5.09828C4.68867 21.9975 4.28288 21.9169 3.90498 21.7589C3.52707 21.6009 3.18474 21.3686 2.89828 21.0758C2.60971 20.7851 2.3816 20.4402 2.22712 20.0608C2.07264 19.6815 1.99487 19.2753 1.99828 18.8658V7.27578C1.99317 6.86806 2.07123 6.46358 2.22769 6.08705C2.38416 5.71051 2.61573 5.36982 2.90828 5.08578C3.19293 4.79718 3.53311 4.56926 3.90828 4.41578C4.28836 4.25684 4.69631 4.17525 5.10828 4.17578H9.54828C9.74719 4.17578 9.93796 4.2548 10.0786 4.39545C10.2193 4.53611 10.2983 4.72687 10.2983 4.92578C10.2983 5.1247 10.2193 5.31546 10.0786 5.45611C9.93796 5.59677 9.74719 5.67578 9.54828 5.67578H5.10828C4.89319 5.68163 4.68046 5.72216 4.47828 5.79578C4.18362 5.92016 3.93237 6.12897 3.7562 6.39591C3.58002 6.66284 3.4868 6.97595 3.48828 7.29578V18.8858C3.48578 19.1006 3.52604 19.3139 3.60673 19.513C3.68742 19.7122 3.80693 19.8933 3.95828 20.0458C4.10961 20.1959 4.2891 20.3148 4.48644 20.3954C4.68378 20.4761 4.8951 20.517 5.10828 20.5158H16.7083C16.9213 20.5158 17.1313 20.4758 17.3283 20.3958C17.5243 20.317 17.7015 20.1978 17.8483 20.0458C18.0003 19.899 18.1195 19.7218 18.1983 19.5258C18.2867 19.3277 18.331 19.1127 18.3283 18.8958V14.4558C18.3283 14.2569 18.4073 14.0661 18.548 13.9255C18.6886 13.7848 18.8794 13.7058 19.0783 13.7058C19.2772 13.7058 19.468 13.7848 19.6086 13.9255C19.7493 14.0661 19.8283 14.2569 19.8283 14.4558V18.9258C19.83 19.3354 19.7494 19.7412 19.5914 20.1191C19.4334 20.497 19.2011 20.8393 18.9083 21.1258C18.6212 21.4139 18.2818 21.6447 17.9083 21.8058C17.5213 21.9458 17.1103 22.0108 16.6983 21.9958Z" fill="#83C55A"/>
<path d="M21.8084 5.45576C21.7065 5.19828 21.5495 4.96619 21.3484 4.77576L19.1984 2.62576C19.008 2.4247 18.7759 2.2677 18.5184 2.16576C18.1315 2.00273 17.7046 1.95942 17.2929 2.04142C16.8811 2.12341 16.5034 2.32695 16.2084 2.62576L14.4984 4.33576V4.38576L6.75844 12.1158C6.36768 12.5092 6.14839 13.0412 6.14844 13.5958V15.7658C6.15107 16.3246 6.37421 16.8597 6.76935 17.2549C7.16448 17.65 7.69964 17.8731 8.25844 17.8758H10.4284C10.704 17.8761 10.9768 17.8215 11.231 17.715C11.4851 17.6085 11.7154 17.4524 11.9084 17.2558L19.6484 9.51576L21.3684 7.79576C21.5704 7.60576 21.7284 7.37376 21.8284 7.11576C21.9429 6.85929 22.002 6.5816 22.002 6.30076C22.002 6.01992 21.9429 5.74223 21.8284 5.48576L21.8084 5.45576ZM20.4284 6.50576C20.396 6.58132 20.3483 6.64939 20.2884 6.70576L19.0684 7.92576L16.0684 4.92576L17.2984 3.69576C17.4166 3.58149 17.5741 3.51704 17.7384 3.51576C17.8177 3.51708 17.8958 3.53407 17.9684 3.56576C18.0458 3.59843 18.1124 3.64509 18.1684 3.70576L20.3284 5.85576C20.3829 5.9145 20.4269 5.98215 20.4584 6.05576C20.4733 6.13171 20.4733 6.20981 20.4584 6.28576C20.4622 6.36032 20.452 6.43493 20.4284 6.50576Z" fill="#83C55A"/>
</svg>
