<svg width="32" height="32" viewBox="0 0 32 32" fill="none" xmlns="http://www.w3.org/2000/svg">
<path d="M16.7922 31.0107L16.7762 31.0134L16.6816 31.0601L16.6549 31.0654L16.6362 31.0601L16.5416 31.0121C16.5273 31.0085 16.5167 31.0112 16.5096 31.0201L16.5042 31.0334L16.4816 31.6041L16.4882 31.6307L16.5016 31.6481L16.6402 31.7467L16.6602 31.7521L16.6762 31.7467L16.8149 31.6481L16.8309 31.6267L16.8362 31.6041L16.8136 31.0347C16.81 31.0205 16.8029 31.0125 16.7922 31.0107ZM17.1442 30.8601L17.1256 30.8627L16.8802 30.9867L16.8669 31.0001L16.8629 31.0147L16.8869 31.5881L16.8936 31.6041L16.9042 31.6147L17.1722 31.7374C17.1891 31.7419 17.202 31.7383 17.2109 31.7267L17.2162 31.7081L17.1709 30.8894C17.1665 30.8725 17.1576 30.8627 17.1442 30.8601ZM16.1909 30.8627C16.185 30.8592 16.178 30.858 16.1713 30.8595C16.1646 30.861 16.1587 30.865 16.1549 30.8707L16.1469 30.8894L16.1016 31.7081C16.1025 31.7241 16.11 31.7347 16.1242 31.7401L16.1442 31.7374L16.4122 31.6134L16.4256 31.6027L16.4296 31.5881L16.4536 31.0147L16.4496 30.9987L16.4362 30.9854L16.1909 30.8627Z" fill="#11A9DB"/>
<path d="M15.9996 2.66675C13.5242 2.66675 11.1503 3.65008 9.39992 5.40042C7.64958 7.15076 6.66625 9.52473 6.66625 12.0001V16.7041C6.66644 16.9109 6.61851 17.115 6.52625 17.3001L4.23691 21.8774C4.12508 22.101 4.07228 22.3495 4.08351 22.5993C4.09475 22.8491 4.16965 23.0919 4.30111 23.3045C4.43257 23.5172 4.61621 23.6928 4.8346 23.8145C5.053 23.9362 5.29889 24.0001 5.54892 24.0001H26.4502C26.7003 24.0001 26.9462 23.9362 27.1646 23.8145C27.383 23.6928 27.5666 23.5172 27.6981 23.3045C27.8295 23.0919 27.9044 22.8491 27.9157 22.5993C27.9269 22.3495 27.8741 22.101 27.7622 21.8774L25.4742 17.3001C25.3815 17.1151 25.3331 16.911 25.3329 16.7041V12.0001C25.3329 9.52473 24.3496 7.15076 22.5992 5.40042C20.8489 3.65008 18.4749 2.66675 15.9996 2.66675ZM15.9996 28.0001C15.172 28.0005 14.3647 27.7443 13.6889 27.2667C13.0131 26.7891 12.5021 26.1136 12.2262 25.3334H19.7729C19.4971 26.1136 18.986 26.7891 18.3102 27.2667C17.6344 27.7443 16.8271 28.0005 15.9996 28.0001Z" fill="#83C55A"/>
</svg>
