<svg width="25" height="24" viewBox="0 0 25 24" fill="none" xmlns="http://www.w3.org/2000/svg">
<g clip-path="url(#clip0_2714_69659)">
<path fill-rule="evenodd" clip-rule="evenodd" d="M4.805 11.6253L7.76 14.5803C7.87053 14.6833 7.95918 14.8075 8.02067 14.9455C8.08216 15.0834 8.11522 15.2324 8.11789 15.3835C8.12055 15.5345 8.09277 15.6846 8.03618 15.8247C7.9796 15.9647 7.89539 16.092 7.78856 16.1988C7.68173 16.3056 7.55448 16.3899 7.4144 16.4464C7.27431 16.503 7.12427 16.5308 6.97322 16.5281C6.82216 16.5255 6.67319 16.4924 6.53519 16.4309C6.39719 16.3694 6.27299 16.2808 6.17 16.1703L1.295 11.2953L0.5 10.5003L1.295 9.70526L6.17 4.83026C6.38326 4.63154 6.66533 4.52335 6.95678 4.5285C7.24824 4.53364 7.52631 4.65171 7.73243 4.85783C7.93855 5.06394 8.05662 5.34202 8.06176 5.63347C8.0669 5.92493 7.95872 6.207 7.76 6.42026L4.805 9.37526H19.625C20.9179 9.37526 22.1579 9.88887 23.0721 10.8031C23.9864 11.7174 24.5 12.9573 24.5 14.2503C24.5 15.5432 23.9864 16.7832 23.0721 17.6974C22.1579 18.6116 20.9179 19.1253 19.625 19.1253H16.625C16.3266 19.1253 16.0405 19.0067 15.8295 18.7958C15.6185 18.5848 15.5 18.2986 15.5 18.0003C15.5 17.7019 15.6185 17.4157 15.8295 17.2048C16.0405 16.9938 16.3266 16.8753 16.625 16.8753H19.625C20.3212 16.8753 20.9889 16.5987 21.4812 16.1064C21.9734 15.6141 22.25 14.9465 22.25 14.2503C22.25 13.5541 21.9734 12.8864 21.4812 12.3941C20.9889 11.9018 20.3212 11.6253 19.625 11.6253H4.805Z" fill="#83C55A"/>
</g>
<defs>
<clipPath id="clip0_2714_69659">
<rect width="24" height="24" fill="white" transform="translate(0.5)"/>
</clipPath>
</defs>
</svg>
