<svg width="19" height="20" viewBox="0 0 19 20" fill="none" xmlns="http://www.w3.org/2000/svg">
<path d="M6 1.75001V3.64701C6 4.10701 6.375 4.48501 6.844 4.48501H12.156C12.2665 4.48553 12.376 4.46426 12.4782 4.42241C12.5805 4.38056 12.6735 4.31894 12.7518 4.2411C12.8302 4.16326 12.8925 4.07072 12.9351 3.96877C12.9777 3.86683 12.9997 3.75749 13 3.64701V1.81701C12.8132 1.77287 12.6219 1.75039 12.43 1.75001H6ZM14.813 19.75H4.188C3.67148 19.7511 3.15983 19.6503 2.68229 19.4534C2.20475 19.2566 1.7707 18.9676 1.40496 18.6028C1.03922 18.2381 0.748956 17.8049 0.550779 17.3279C0.352601 16.8509 0.250393 16.3395 0.25 15.823V4.17601C0.250525 3.65958 0.352829 3.14831 0.551066 2.67144C0.749302 2.19457 1.03958 1.76145 1.40531 1.39683C1.77104 1.03222 2.20505 0.743261 2.68252 0.546481C3.15999 0.349701 3.67157 0.248957 4.188 0.250008H12.43C13.4731 0.250834 14.4736 0.664243 15.213 1.40001L17.596 3.77401C17.9616 4.13802 18.2517 4.57062 18.4497 5.04698C18.6477 5.52335 18.7498 6.03412 18.75 6.55001V15.822C18.7496 16.3384 18.6474 16.8497 18.4493 17.3267C18.2512 17.8036 17.961 18.2368 17.5954 18.6015C17.2298 18.9662 16.7958 19.2553 16.3184 19.4522C15.841 19.6491 15.3294 19.7509 14.813 19.75ZM13 18.249V14.234C12.9997 14.1235 12.9777 14.0142 12.9351 13.9122C12.8925 13.8103 12.8302 13.7178 12.7518 13.6399C12.6735 13.5621 12.5805 13.5005 12.4782 13.4586C12.376 13.4168 12.2665 13.3955 12.156 13.396H6.844C6.73352 13.3955 6.62402 13.4168 6.52178 13.4586C6.41953 13.5005 6.32655 13.5621 6.24815 13.6399C6.16975 13.7178 6.10748 13.8103 6.0649 13.9122C6.02232 14.0142 6.00026 14.1235 6 14.234V18.249H13Z" fill="white"/>
</svg>
