<svg width="33" height="32" viewBox="0 0 33 32" fill="none" xmlns="http://www.w3.org/2000/svg">
<path d="M4.66797 4H7.33464L7.86797 6.66667M10.0013 17.3333H23.3346L28.668 6.66667H7.86797M10.0013 17.3333L7.86797 6.66667M10.0013 17.3333L6.94411 20.3905C6.10416 21.2305 6.69905 22.6667 7.88692 22.6667H23.3346M23.3346 22.6667C21.8619 22.6667 20.668 23.8606 20.668 25.3333C20.668 26.8061 21.8619 28 23.3346 28C24.8074 28 26.0013 26.8061 26.0013 25.3333C26.0013 23.8606 24.8074 22.6667 23.3346 22.6667ZM12.668 25.3333C12.668 26.8061 11.4741 28 10.0013 28C8.52854 28 7.33464 26.8061 7.33464 25.3333C7.33464 23.8606 8.52854 22.6667 10.0013 22.6667C11.4741 22.6667 12.668 23.8606 12.668 25.3333Z" stroke="#83C55A" stroke-width="1.5" stroke-linecap="round" stroke-linejoin="round"/>
</svg>
