<svg width="30" height="32" viewBox="0 0 30 32" fill="none" xmlns="http://www.w3.org/2000/svg">
<g filter="url(#filter0_d_2440_15280)">
<path d="M19.6158 12.6417C21.148 13.7461 23.025 14.3959 25.0523 14.3959V10.4624C24.6686 10.4625 24.2859 10.4221 23.9105 10.3419V13.4381C21.8835 13.4381 20.0067 12.7884 18.4742 11.6841V19.7113C18.4742 23.727 15.2458 26.9821 11.2636 26.9821C9.7778 26.9821 8.39672 26.5291 7.24951 25.7523C8.55889 27.1023 10.3849 27.9398 12.405 27.9398C16.3875 27.9398 19.616 24.6847 19.616 20.6688V12.6417H19.6158ZM21.0243 8.67322C20.2412 7.81062 19.727 6.69586 19.6158 5.46342V4.95752H18.5339C18.8062 6.52389 19.7352 7.8621 21.0243 8.67322ZM9.7682 22.6708C9.33067 22.0925 9.09419 21.3849 9.0953 20.6573C9.0953 18.8207 10.5719 17.3316 12.3938 17.3316C12.7332 17.3314 13.0707 17.384 13.3943 17.4874V13.4659C13.0161 13.4137 12.6345 13.3915 12.2531 13.3996V16.5297C11.9293 16.4263 11.5917 16.3737 11.2521 16.374C9.43031 16.374 7.95375 17.863 7.95375 19.6998C7.95375 20.9986 8.69178 22.1231 9.7682 22.6708Z" fill="#FF004F"/>
<path d="M18.474 11.684C20.0066 12.7883 21.8833 13.438 23.9104 13.438V10.3418C22.7789 10.0987 21.7772 9.50254 21.0241 8.67322C19.735 7.86202 18.8061 6.52381 18.5338 4.95752H15.692V20.6687C15.6855 22.5003 14.2114 23.9833 12.3935 23.9833C11.3223 23.9833 10.3706 23.4685 9.76791 22.6708C8.69166 22.1231 7.95354 20.9985 7.95354 19.6999C7.95354 17.8632 9.4301 16.3741 11.2519 16.3741C11.6009 16.3741 11.9373 16.4289 12.2529 16.5298V13.3997C8.34064 13.4812 5.19434 16.7045 5.19434 20.6687C5.19434 22.6477 5.97782 24.4416 7.24946 25.7524C8.39667 26.5291 9.77767 26.9822 11.2636 26.9822C15.2458 26.9822 18.4741 23.7269 18.4741 19.7113L18.474 11.684Z" fill="black"/>
<path d="M23.9104 10.3418V9.50477C22.8901 9.50627 21.8899 9.21813 21.0241 8.6733C21.7904 9.51927 22.7995 10.1026 23.9104 10.342M18.5337 4.95752C18.5078 4.80785 18.4878 4.65719 18.474 4.5059V4H14.5501V19.7113C14.5439 21.5428 13.0698 23.0258 11.2518 23.0258C10.7364 23.0266 10.2281 22.905 9.76785 22.671C10.3705 23.4686 11.3223 23.9833 12.3934 23.9833C14.2112 23.9833 15.6855 22.5004 15.6919 20.6688V4.9576L18.5337 4.95752ZM12.2531 13.3997V12.5085C11.9252 12.4633 11.5946 12.4407 11.2637 12.4408C7.28107 12.4408 4.05273 15.696 4.05273 19.7113C4.05273 22.2287 5.32151 24.4473 7.24957 25.7524C5.97793 24.4416 5.19445 22.6476 5.19445 20.6687C5.19445 16.7046 8.34067 13.4812 12.2531 13.3997Z" fill="#00F2EA"/>
</g>
<defs>
<filter id="filter0_d_2440_15280" x="0.0527344" y="0" width="28.9995" height="31.9397" filterUnits="userSpaceOnUse" color-interpolation-filters="sRGB">
<feFlood flood-opacity="0" result="BackgroundImageFix"/>
<feColorMatrix in="SourceAlpha" type="matrix" values="0 0 0 0 0 0 0 0 0 0 0 0 0 0 0 0 0 0 127 0" result="hardAlpha"/>
<feOffset/>
<feGaussianBlur stdDeviation="2"/>
<feComposite in2="hardAlpha" operator="out"/>
<feColorMatrix type="matrix" values="0 0 0 0 0 0 0 0 0 0 0 0 0 0 0 0 0 0 0.25 0"/>
<feBlend mode="normal" in2="BackgroundImageFix" result="effect1_dropShadow_2440_15280"/>
<feBlend mode="normal" in="SourceGraphic" in2="effect1_dropShadow_2440_15280" result="shape"/>
</filter>
</defs>
</svg>
