<svg width="32" height="32" viewBox="0 0 32 32" fill="none" xmlns="http://www.w3.org/2000/svg">
<g filter="url(#filter0_d_2440_15289)">
<path d="M4.51209 15.8563C4.51153 17.8728 5.04253 19.8417 6.05221 21.5771L4.41553 27.5066L10.531 25.9156C12.2225 26.8292 14.1177 27.308 16.0435 27.3081H16.0486C22.4062 27.3081 27.5815 22.1748 27.5842 15.8653C27.5855 12.8079 26.3866 9.93295 24.2084 7.76997C22.0306 5.60718 19.1342 4.41546 16.0481 4.41406C9.68972 4.41406 4.51481 9.54709 4.51218 15.8563" fill="url(#paint0_linear_2440_15289)"/>
<path d="M4.10031 15.8527C4.09966 17.9417 4.64969 19.981 5.69537 21.7786L4 27.9207L10.3348 26.2726C12.0802 27.2168 14.0454 27.7147 16.0451 27.7154H16.0502C22.636 27.7154 27.9972 22.3975 28 15.8621C28.0011 12.6949 26.7591 9.71656 24.5031 7.47609C22.2468 5.23591 19.2468 4.0013 16.0502 4C9.46337 4 4.10294 9.31721 4.10031 15.8527ZM7.87291 21.469L7.63637 21.0965C6.64206 19.5277 6.11725 17.7149 6.118 15.8534C6.12006 10.4213 10.5754 6.00186 16.054 6.00186C18.7071 6.00298 21.2005 7.02921 23.0759 8.89116C24.9512 10.7533 25.9831 13.2287 25.9824 15.8614C25.98 21.2935 21.5245 25.7135 16.0502 25.7135H16.0463C14.2638 25.7126 12.5157 25.2376 10.9911 24.34L10.6283 24.1265L6.86912 25.1045L7.87291 21.469Z" fill="url(#paint1_linear_2440_15289)"/>
<path d="M13.0633 10.8977C12.8397 10.4044 12.6042 10.3945 12.3915 10.3858C12.2173 10.3784 12.0182 10.3789 11.8193 10.3789C11.6202 10.3789 11.2966 10.4532 11.0232 10.7495C10.7494 11.0461 9.97803 11.7627 9.97803 13.2203C9.97803 14.6779 11.048 16.0866 11.1972 16.2845C11.3465 16.482 13.2627 19.5689 16.2976 20.7564C18.8199 21.7433 19.3332 21.547 19.8806 21.4975C20.4281 21.4482 21.6472 20.7811 21.8959 20.0892C22.1448 19.3975 22.1448 18.8046 22.0702 18.6807C21.9956 18.5572 21.7964 18.4831 21.4978 18.335C21.1992 18.1869 19.7312 17.4701 19.4576 17.3712C19.1838 17.2724 18.9848 17.2231 18.7857 17.5198C18.5865 17.8159 18.0147 18.4831 17.8405 18.6807C17.6664 18.8787 17.4921 18.9034 17.1936 18.7552C16.8948 18.6065 15.9332 18.2941 14.7924 17.2849C13.9047 16.4996 13.3055 15.5298 13.1313 15.2331C12.9571 14.937 13.1127 14.7764 13.2624 14.6288C13.3965 14.496 13.5611 14.2828 13.7105 14.1099C13.8594 13.9369 13.9091 13.8134 14.0086 13.6158C14.1083 13.4181 14.0584 13.2451 13.9839 13.0969C13.9091 12.9487 13.3288 11.4835 13.0633 10.8977Z" fill="white"/>
</g>
<defs>
<filter id="filter0_d_2440_15289" x="0" y="0" width="32" height="31.9207" filterUnits="userSpaceOnUse" color-interpolation-filters="sRGB">
<feFlood flood-opacity="0" result="BackgroundImageFix"/>
<feColorMatrix in="SourceAlpha" type="matrix" values="0 0 0 0 0 0 0 0 0 0 0 0 0 0 0 0 0 0 127 0" result="hardAlpha"/>
<feOffset/>
<feGaussianBlur stdDeviation="2"/>
<feComposite in2="hardAlpha" operator="out"/>
<feColorMatrix type="matrix" values="0 0 0 0 0 0 0 0 0 0 0 0 0 0 0 0 0 0 0.25 0"/>
<feBlend mode="normal" in2="BackgroundImageFix" result="effect1_dropShadow_2440_15289"/>
<feBlend mode="normal" in="SourceGraphic" in2="effect1_dropShadow_2440_15289" result="shape"/>
</filter>
<linearGradient id="paint0_linear_2440_15289" x1="1162.85" y1="2313.67" x2="1162.85" y2="4.41406" gradientUnits="userSpaceOnUse">
<stop stop-color="#1FAF38"/>
<stop offset="1" stop-color="#60D669"/>
</linearGradient>
<linearGradient id="paint1_linear_2440_15289" x1="1204" y1="2396.07" x2="1204" y2="4" gradientUnits="userSpaceOnUse">
<stop stop-color="#F9F9F9"/>
<stop offset="1" stop-color="white"/>
</linearGradient>
</defs>
</svg>
