<svg width="25" height="24" viewBox="0 0 25 24" fill="none" xmlns="http://www.w3.org/2000/svg">
<g clip-path="url(#clip0_2440_15277)">
<path d="M23.5227 6.22822C23.385 5.71949 23.1165 5.2557 22.7438 4.88303C22.3712 4.51036 21.9074 4.24181 21.3987 4.10413C19.5363 3.59619 12.0406 3.59619 12.0406 3.59619C12.0406 3.59619 4.5445 3.61157 2.68207 4.1195C2.17333 4.25719 1.70954 4.52576 1.33689 4.89844C0.964231 5.27113 0.695711 5.73494 0.558065 6.24369C-0.00527886 9.55288 -0.22381 14.5953 0.573534 17.7721C0.711194 18.2809 0.979721 18.7446 1.35238 19.1173C1.72503 19.49 2.18881 19.7585 2.69753 19.8962C4.55997 20.4042 12.0558 20.4042 12.0558 20.4042C12.0558 20.4042 19.5516 20.4042 21.414 19.8962C21.9227 19.7586 22.3865 19.49 22.7592 19.1173C23.1319 18.7447 23.4004 18.2809 23.5381 17.7721C24.1323 14.4583 24.3153 9.41891 23.5227 6.22822Z" fill="#FF0000"/>
<path d="M9.05273 15.4248L15.271 11.8374L9.05273 8.25V15.4248Z" fill="white"/>
</g>
<defs>
<clipPath id="clip0_2440_15277">
<rect width="24" height="24" fill="white" transform="translate(0.0527344)"/>
</clipPath>
</defs>
</svg>
